<svg width="24" height="24" viewBox="0 0 24 24" fill="none" xmlns="http://www.w3.org/2000/svg">
  <g opacity="0.2">
  <path fill-rule="evenodd" clip-rule="evenodd" d="M12 24C5.37258 24 0 18.6274 0 12C0 5.37258 5.37258 0 12 0C18.6274 0 24 5.37258 24 12C24 18.6274 18.6274 24 12 24ZM17.1963 6.80298C17.4892 7.09588 17.4892 7.57075 17.1963 7.86364L13.0606 11.9993L17.197 16.1357C17.4899 16.4286 17.4899 16.9035 17.197 17.1963C16.9041 17.4892 16.4292 17.4892 16.1363 17.1963L11.9999 13.06L7.86358 17.1963C7.57069 17.4892 7.09582 17.4892 6.80292 17.1963C6.51003 16.9035 6.51003 16.4286 6.80292 16.1357L10.9393 11.9993L6.8036 7.86364C6.5107 7.57075 6.5107 7.09588 6.8036 6.80298C7.09649 6.51009 7.57136 6.51009 7.86426 6.80298L11.9999 10.9387L16.1356 6.80298C16.4285 6.51009 16.9034 6.51009 17.1963 6.80298Z" fill="black"/>
  </g>
  </svg>
  