<svg t="1769133979231" class="icon" viewBox="0 0 1028 1024" version="1.1" xmlns="http://www.w3.org/2000/svg" p-id="5770" width="200" height="200"><path d="M1014.921763 850.740575l-64.92716 112.453841a139.593394 139.593394 0 0 1-95.410461 59.765451c-187.899201 11.492107-405.794749-70.023942-583.013432-236.756888C68.024064 594.667857-26.315099 342.78294 6.570507 136.671671a275.291158 275.291158 0 0 1 58.434444-58.596761l47.494217-27.399262 12.758187-7.369232L177.458792 13.14775a97.39074 97.39074 0 0 1 133.100677 35.709938l110.376172 191.210486 0.486954-0.454491c58.239662 129.49722-10.648054 142.125553-47.299436 184.880088l-15.063101 8.700239a129.205048 129.205048 0 0 0 36.521527 107.714159l91.807004 91.807004a129.205048 129.205048 0 0 0 107.714159 36.521527l9.739073-16.556426c19.478148-23.795804 60.674431-94.598872 183.678936-45.449012l191.210485 110.376172a97.39074 97.39074 0 0 1 35.190521 133.133141z m-124.335511-109.27241l-112.453841-64.927159a97.39074 97.39074 0 0 0-133.100678 35.709937l-6.492716 11.297326a186.113704 186.113704 0 0 1-82.944446 9.739074 204.520554 204.520554 0 0 1-21.620744-4.090411 264.675567 264.675567 0 0 1-92.683521-50.51333l-91.807004-91.807004a401.99651 401.99651 0 0 1-57.03851-115.278172s-11.167471-55.545185 7.596478-79.34099l15.809763-9.154729a97.39074 97.39074 0 0 0 35.709938-133.100678l-64.92716-112.453841A97.39074 97.39074 0 0 0 171.290712 93.9496a81.938076 81.938076 0 0 0-35.90472 18.471777l-9.901392 5.71359C64.712779 153.228097 75.166051 283.92647 76.561985 293.0812L75.977641 292.172219a738.416589 738.416589 0 0 0 234.614292 458.48314 788.864992 788.864992 0 0 0 266.688309 170.076695 681.735178 681.735178 0 0 0 126.607962 33.307633 253.63795 253.63795 0 0 0 132.12677-3.44114c48.69537-5.2591 90.281216-75.997241 90.281216-75.99724a97.39074 97.39074 0 0 0-35.709938-133.133142z" fill="#6EA3E5" p-id="5771"></path></svg>