<svg t="1729764753302" class="icon" viewBox="0 0 1024 1024" version="1.1" xmlns="http://www.w3.org/2000/svg" p-id="1134" width="48" height="48"><path d="M867.11 790.07L540.87 953.19a64.515 64.515 0 0 1-57.73 0L156.89 790.07a64.55 64.55 0 0 1-35.41-51.89L66.59 134.39C63.15 96.59 92.91 64 130.87 64h762.26c37.95 0 67.72 32.59 64.28 70.39l-54.89 603.79a64.55 64.55 0 0 1-35.41 51.89z" fill="#F05A1F" p-id="1135"></path><path d="M511.96586667 784.00853333c-3.44746667 0-6.88355555-0.64853333-10.11484445-1.93422222l-210.27271111-82.97813333c-9.46631111-3.73191111-16.13368889-12.40177778-17.28284444-22.51662223l-9.96693334-87.71128888c-1.64977778-15.06417778 9.18186667-28.76302222 24.31431112-30.48106667 14.98453333-1.00124445 28.68337778 9.25013333 30.48106666 24.31431111l8.03271111 71.21351111 184.80924445 72.93155556 185.09368888-72.86328889 19.29671112-176.20764444H276.8896c-14.1312 0-25.96408889-10.68373333-27.39768889-24.74666667l-23.95022222-235.22417778c-0.78506667-7.74826667 1.71804445-15.48515555 6.95182222-21.23093333 5.23377778-5.81404445 12.61795555-9.10222222 20.43448889-9.10222222h518.144c15.20071111 0 27.53422222 12.33351111 27.53422222 27.53422222s-12.33351111 27.53422222-27.53422222 27.53422222H283.40906667l18.36373333 180.14435556h445.36035555c7.81653333 0 15.28035555 3.29955555 20.51413334 9.18186666a27.37493333 27.37493333 0 0 1 6.88355556 21.36746667l-24.5304889 223.25475555c-1.14915555 10.18311111-7.81653333 18.86435555-17.28284444 22.58488889l-210.62542222 82.97813333a26.81514667 26.81514667 0 0 1-10.12622222 1.95697778z" fill="#F2F4C9" p-id="1136"></path></svg>